<svg xmlns="http://www.w3.org/2000/svg" aria-hidden="true" style="position:absolute;width:0;height:0;overflow:hidden"><defs><symbol id="arrow-icon" viewBox="0 0 62 32"><path d="m56 16-10-5.774v11.547l10-5.774zM6 17h41v-2H6v2z"/></symbol><symbol id="about-icon" viewBox="0 0 32 32"><path d="M23 17.333a1.667 1.667 0 0 1-3.334 0 1.667 1.667 0 0 1 3.334 0zM29.333 16c0 7.333-6 13.333-13.333 13.333H2.666V16c0-7.333 6-13.333 13.334-13.333s13.333 6 13.333 13.333zm-20 8c1.88 1.64 4 2.667 6.667 2.667 5.88 0 10.667-4.787 10.667-10.667 0-1.053-.16-2.067-.44-3.013-.896.22-1.925.347-2.983.347h-.018.001c-2.666 0-5.133-.8-7.227-2.147 0 0-1.947 7.16-5.293 6.147-.88-.267-1.373.413-1.373 1.334z"/></symbol><symbol id="linktree-icon" viewBox="0 0 32 32"><path stroke-width=".39" d="m9.726 24.084 6.844-7.002 6.484 7.002 2.882-2.948-5.043-4.791h7.205v-4.054h-7.205L25.936 7.5l-2.882-2.948-4.683 5.159v-7.37h-3.963v7.37L9.725 4.552 6.843 7.5l5.043 4.791H4.681v4.054h7.205l-5.043 4.791 2.882 2.948z"/><path stroke-width=".39" d="M14.718 20.739h3.345v10.035h-3.345V20.739z"/></symbol><symbol id="linkedin-icon" viewBox="0 0 32 32"><path d="M3.902 11.707h5.463v17.171H3.902zM9.366 5.463a3.122 3.122 0 1 1-6.245 0 3.122 3.122 0 0 1 6.245 0zM12.488 10.927h5.463v17.951h-5.463zm17.171 17.951c2.732-21.854-8.585-20.683-11.707-14.829v6.244c1.951-8.976 8.585-5.463 6.244 8.585h5.463z"/></symbol><symbol id="main-icon" viewBox="0 0 32 32"><path stroke-width=".615" d="M28.443 17.305c-7.474-2.214-24.286-2.059-23.012-6.816 3.026-11.298 14.99-11.605 11.55 7.593l-3.058 10.326"/></symbol><symbol id="telega-icon" viewBox="0 0 32 32"><path stroke-width=".78" d="M28.488 4.683 2.342 14.829l7.024 3.122 15.22-8.976-11.707 10.537-.39 6.244 3.902-3.512 7.805 5.073 4.293-22.634z"/></symbol><symbol id="insta1-icon" viewBox="0 0 32 32"><path d="M16.39 2.341c-3.604 0-4.055.015-5.47.08-1.413.065-2.378.289-3.222.617a6.492 6.492 0 0 0-2.35 1.53 6.501 6.501 0 0 0-1.53 2.349c-.326.844-.552 1.81-.617 3.222-.064 1.414-.08 1.865-.08 5.469s.015 4.055.08 5.47c.065 1.413.289 2.378.617 3.222a6.492 6.492 0 0 0 1.53 2.35 6.501 6.501 0 0 0 2.349 1.53c.844.327 1.809.552 3.222.616 1.415.065 1.866.08 5.47.08s4.055-.015 5.47-.08c1.413-.065 2.378-.289 3.222-.617a6.492 6.492 0 0 0 2.35-1.53 6.501 6.501 0 0 0 1.53-2.349c.327-.844.552-1.809.616-3.222.065-1.415.08-1.866.08-5.47s-.015-4.055-.08-5.47c-.065-1.413-.289-2.378-.617-3.222a6.505 6.505 0 0 0-1.53-2.35 6.501 6.501 0 0 0-2.349-1.53c-.844-.326-1.81-.552-3.222-.617-1.414-.064-1.865-.08-5.469-.08zm0 2.391c3.543 0 3.963.013 5.362.077 1.293.059 1.996.274 2.463.457.619.24 1.061.528 1.526.992s.752.907.992 1.526c.182.468.398 1.17.457 2.463.064 1.399.077 1.82.077 5.362s-.013 3.963-.077 5.362c-.059 1.293-.274 1.996-.457 2.463a4.101 4.101 0 0 1-.992 1.526 4.105 4.105 0 0 1-1.526.992c-.468.182-1.17.398-2.463.457-1.399.064-1.819.077-5.362.077s-3.963-.013-5.362-.077c-1.293-.059-1.996-.274-2.463-.457a4.101 4.101 0 0 1-1.526-.992 4.126 4.126 0 0 1-.992-1.526c-.182-.468-.398-1.17-.457-2.463-.064-1.399-.077-1.82-.077-5.362s.013-3.963.077-5.362c.059-1.293.274-1.996.457-2.463.24-.619.528-1.061.992-1.526.428-.44.949-.779 1.526-.992.468-.182 1.17-.398 2.463-.457 1.399-.064 1.82-.077 5.362-.077z"/><path d="M16.39 20.037a4.417 4.417 0 0 1-3.13-1.297 4.437 4.437 0 0 1-1.297-3.13 4.417 4.417 0 0 1 1.297-3.13 4.437 4.437 0 0 1 3.13-1.297 4.427 4.427 0 1 1 0 8.854zm0-11.247a6.819 6.819 0 1 0 .001 13.638A6.819 6.819 0 0 0 16.39 8.79zm8.804-.124a1.612 1.612 0 1 0-3.224 0 1.612 1.612 0 0 0 3.224 0z"/></symbol></defs></svg>